<svg width="143" height="28" viewBox="0 0 143 28" fill="none" xmlns="http://www.w3.org/2000/svg">
<path d="M2.27994 25.5C2.29994 25.74 2.30994 25.96 2.30994 26.16C2.32994 26.36 2.34994 26.5 2.36994 26.58C2.32994 26.82 2.13994 27.04 1.79994 27.24C1.47994 27.44 1.10994 27.54 0.689942 27.54C0.529942 27.54 0.379942 27.47 0.239942 27.33C0.119942 27.21 0.0599417 27.08 0.0599417 26.94C0.139942 25.76 0.209942 24.62 0.269942 23.52C0.329942 22.4 0.369942 20.94 0.389942 19.14V8.22C0.389942 5.7 0.259942 3.65 -5.83827e-05 2.07L2.45994 3.27H15.4199L15.8999 2.61C15.9399 2.55 16.0099 2.46 16.1099 2.34C16.2099 2.2 16.2999 2.1 16.3799 2.04C16.4599 1.98 16.5399 1.95 16.6199 1.95C16.7399 1.95 16.9899 2.09 17.3699 2.37C17.7499 2.63 18.0999 2.92 18.4199 3.24C18.7399 3.56 18.8999 3.79 18.8999 3.93C18.6799 4.19 18.2699 4.38 17.6699 4.5V19.41C17.7099 21.89 17.7899 24.24 17.9099 26.46C17.7499 26.66 17.4699 26.86 17.0699 27.06C16.6899 27.28 16.3299 27.39 15.9899 27.39C15.8699 27.39 15.7699 27.33 15.6899 27.21C15.6299 27.09 15.5999 26.95 15.5999 26.79C15.5999 26.79 15.6399 26.43 15.7199 25.71V24.87H2.27994V25.5ZM15.7199 13.44V4.14H2.27994V13.44H15.7199ZM2.27994 14.31V24H15.7199V14.31H2.27994ZM46.2899 1.41C46.3499 1.33 46.4499 1.2 46.5899 1.02C46.7499 0.820001 46.8899 0.720001 47.0099 0.720001C47.1299 0.720001 47.3699 0.860001 47.7299 1.14C48.1099 1.42 48.4499 1.72 48.7499 2.04C49.0699 2.36 49.2299 2.59 49.2299 2.73C49.1299 2.85 48.9699 2.97 48.7499 3.09C48.5299 3.21 48.2699 3.3 47.9699 3.36V6.33C48.0299 8.81 48.0999 10.72 48.1799 12.06C48.0599 12.24 47.8099 12.42 47.4299 12.6C47.0499 12.76 46.7099 12.84 46.4099 12.84H46.1099V11.34H32.0099V12.6C32.0099 12.7 31.8299 12.83 31.4699 12.99C31.1299 13.15 30.7899 13.23 30.4499 13.23C30.3099 13.23 30.1899 13.17 30.0899 13.05C30.0099 12.93 29.9699 12.79 29.9699 12.63C30.0499 11.71 30.1099 10.56 30.1499 9.18V7.14C30.1499 4.62 30.0199 2.57 29.7599 0.990001L32.1599 2.1H45.8099L46.2899 1.41ZM46.1099 6.24V2.97H32.0099V6.24H46.1099ZM32.0099 7.08V10.47H46.1099V7.08H32.0099ZM34.0499 15.45C31.6499 15.89 29.4799 16.18 27.5399 16.32L27.3899 15.78C29.3299 15.44 31.4299 14.92 33.6899 14.22C35.8499 13.54 37.5399 12.74 38.7599 11.82C40.0199 13.1 40.6499 13.86 40.6499 14.1C40.6499 14.22 40.5099 14.26 40.2299 14.22L39.5399 14.13C38.5399 14.45 37.3299 14.77 35.9099 15.09V18.81H42.6599V18.69C42.6599 16.17 42.5299 14.12 42.2699 12.54C44.3299 13.1 45.3599 13.53 45.3599 13.83C45.3599 13.93 45.2699 14.03 45.0899 14.13L44.5799 14.46V18.81H47.9999L48.6299 17.88C48.7299 17.76 48.8299 17.63 48.9299 17.49C49.0299 17.35 49.1299 17.23 49.2299 17.13C49.3299 17.01 49.4199 16.95 49.4999 16.95C49.6199 16.95 49.8799 17.11 50.2799 17.43C50.6999 17.75 51.0799 18.09 51.4199 18.45C51.7799 18.81 51.9599 19.06 51.9599 19.2C51.8999 19.52 51.6399 19.68 51.1799 19.68H44.5799V22.14C44.6199 24.16 44.6799 25.75 44.7599 26.91C44.6599 27.13 44.4299 27.32 44.0699 27.48C43.7299 27.66 43.3799 27.75 43.0199 27.75C42.8399 27.75 42.6899 27.69 42.5699 27.57C42.4699 27.45 42.4199 27.31 42.4199 27.15C42.5399 25.55 42.6199 23.96 42.6599 22.38V19.68H35.8199C35.6399 21.46 34.8899 23.04 33.5699 24.42C32.2499 25.8 29.9599 26.92 26.6999 27.78L26.4299 27.3C29.0499 26.32 30.9099 25.21 32.0099 23.97C33.1099 22.71 33.7599 21.28 33.9599 19.68H30.9899C29.5699 19.7 28.0699 19.84 26.4899 20.1L25.6799 18.57C26.7799 18.69 28.1099 18.77 29.6699 18.81H34.0499V15.45ZM76.7399 3.78C76.8199 3.68 76.9199 3.54 77.0399 3.36C77.1799 3.16 77.2899 3.02 77.3699 2.94C77.4699 2.84 77.5599 2.79 77.6399 2.79C77.7599 2.79 78.0399 2.96 78.4799 3.3C78.9199 3.64 79.3299 4 79.7099 4.38C80.1099 4.76 80.3099 5.02 80.3099 5.16C80.2299 5.48 79.9699 5.64 79.5299 5.64H69.8999V24.39H77.9699L78.6599 23.43C78.7399 23.33 78.8399 23.19 78.9599 23.01C79.0999 22.81 79.2099 22.67 79.2899 22.59C79.3899 22.49 79.4799 22.44 79.5599 22.44C79.6799 22.44 79.9599 22.61 80.3999 22.95C80.8399 23.29 81.2499 23.65 81.6299 24.03C82.0299 24.41 82.2299 24.67 82.2299 24.81C82.1499 25.13 81.8999 25.29 81.4799 25.29H60.8099C59.3899 25.31 57.8899 25.45 56.3099 25.71L55.5299 24.15C56.6299 24.27 57.9599 24.35 59.5199 24.39H67.8899V5.64H62.7899C61.3699 5.66 59.8699 5.8 58.2899 6.06L57.5099 4.5C58.6099 4.62 59.9399 4.7 61.4999 4.74H76.0499L76.7399 3.78ZM108.48 17.43C108.54 17.35 108.63 17.23 108.75 17.07C108.89 16.89 109 16.76 109.08 16.68C109.16 16.6 109.24 16.56 109.32 16.56C109.44 16.56 109.69 16.71 110.07 17.01C110.47 17.31 110.83 17.63 111.15 17.97C111.49 18.31 111.66 18.55 111.66 18.69C111.58 18.99 111.32 19.14 110.88 19.14H100.8C102.1 20.5 103.81 21.74 105.93 22.86C108.07 23.98 110.19 24.82 112.29 25.38L112.26 25.71C111.9 25.75 111.57 25.91 111.27 26.19C110.97 26.49 110.77 26.85 110.67 27.27C108.57 26.45 106.56 25.33 104.64 23.91C102.74 22.49 101.2 20.9 100.02 19.14H99.8099V21.84C99.8499 24.02 99.9099 25.75 99.9899 27.03C99.8899 27.21 99.6799 27.37 99.3599 27.51C99.0399 27.67 98.6599 27.75 98.2199 27.75C98.0599 27.75 97.9299 27.69 97.8299 27.57C97.7299 27.45 97.6799 27.31 97.6799 27.15C97.7599 26.01 97.8299 24.47 97.8899 22.53V19.92C96.4699 21.44 94.7299 22.82 92.6699 24.06C90.6099 25.3 88.3799 26.34 85.9799 27.18L85.7099 26.67C87.7299 25.75 89.6399 24.63 91.4399 23.31C93.2599 21.99 94.7999 20.6 96.0599 19.14H91.4699C90.0499 19.16 88.5499 19.3 86.9699 19.56L86.1599 18.03C87.2599 18.15 88.5899 18.23 90.1499 18.27H97.8899V15.33H94.2599C92.8399 15.35 91.3399 15.49 89.7599 15.75L88.9799 14.19C90.0799 14.31 91.4099 14.39 92.9699 14.43H97.8899V11.67H92.8499C91.4299 11.69 89.9299 11.83 88.3499 12.09L87.5699 10.53C88.6699 10.65 89.9999 10.73 91.5599 10.77H94.9499C94.8699 10.15 94.6299 9.48 94.2299 8.76C93.8299 8.04 93.3799 7.4 92.8799 6.84H90.6599C89.3599 6.86 87.9999 7 86.5799 7.26L85.7699 5.73C86.8699 5.85 88.1999 5.93 89.7599 5.97H95.7299C95.7299 3.67 95.6099 1.74 95.3699 0.18C97.2299 0.740002 98.1599 1.15 98.1599 1.41C98.1599 1.49 98.0899 1.58 97.9499 1.68L97.5299 1.98V5.97H100.47C100.47 3.67 100.35 1.74 100.11 0.18C101.99 0.720001 102.93 1.13 102.93 1.41C102.93 1.51 102.85 1.61 102.69 1.71L102.24 2.01V5.97H103.29C103.87 5.15 104.41 4.25 104.91 3.27C105.43 2.27 105.8 1.38 106.02 0.6C107.8 1.34 108.69 1.82 108.69 2.04C108.69 2.1 108.58 2.17 108.36 2.25L107.79 2.4C106.87 3.56 105.65 4.75 104.13 5.97H108.24L108.81 5.13C108.89 5.03 108.98 4.91 109.08 4.77C109.2 4.61 109.3 4.49 109.38 4.41C109.46 4.33 109.54 4.29 109.62 4.29C109.74 4.29 109.99 4.44 110.37 4.74C110.77 5.02 111.14 5.33 111.48 5.67C111.82 6.01 111.99 6.25 111.99 6.39C111.91 6.69 111.65 6.84 111.21 6.84H104.28C105.14 7.04 105.57 7.23 105.57 7.41C105.57 7.49 105.45 7.58 105.21 7.68L104.67 7.86C104.03 8.68 103.12 9.65 101.94 10.77H106.8L107.37 9.96C107.43 9.88 107.51 9.77 107.61 9.63C107.73 9.47 107.83 9.35 107.91 9.27C107.99 9.19 108.07 9.15 108.15 9.15C108.27 9.15 108.52 9.29 108.9 9.57C109.28 9.85 109.63 10.16 109.95 10.5C110.27 10.82 110.43 11.05 110.43 11.19C110.37 11.51 110.12 11.67 109.68 11.67H99.8099V14.43H105.33L105.87 13.68C105.93 13.62 106.01 13.51 106.11 13.35C106.23 13.19 106.33 13.08 106.41 13.02C106.49 12.94 106.57 12.9 106.65 12.9C106.77 12.9 107.01 13.04 107.37 13.32C107.73 13.58 108.06 13.87 108.36 14.19C108.66 14.49 108.81 14.71 108.81 14.85C108.73 15.17 108.47 15.33 108.03 15.33H99.8099V18.27H107.88L108.48 17.43ZM89.7899 1.02C91.1299 1.48 92.1099 2.05 92.7299 2.73C93.3499 3.41 93.6599 4.06 93.6599 4.68C93.6599 5 93.5799 5.27 93.4199 5.49C93.2599 5.69 93.0499 5.79 92.7899 5.79C92.5699 5.79 92.3399 5.7 92.0999 5.52C91.9599 4.82 91.6299 4.07 91.1099 3.27C90.5899 2.45 90.0299 1.78 89.4299 1.26L89.7899 1.02ZM93.9299 6.84C94.8299 7.3 95.4899 7.81 95.9099 8.37C96.3299 8.93 96.5399 9.46 96.5399 9.96C96.5399 10.28 96.4599 10.55 96.2999 10.77H100.92C101.64 9.63 102.33 8.32 102.99 6.84H93.9299ZM139.35 9.33C139.43 9.23 139.51 9.11 139.59 8.97C139.69 8.83 139.79 8.71 139.89 8.61C139.99 8.51 140.08 8.46 140.16 8.46C140.28 8.46 140.53 8.61 140.91 8.91C141.31 9.21 141.67 9.54 141.99 9.9C142.33 10.24 142.5 10.48 142.5 10.62C142.42 10.94 142.17 11.1 141.75 11.1H138.57V19.98C138.61 22.46 138.69 24.81 138.81 27.03C138.65 27.23 138.41 27.41 138.09 27.57C137.79 27.73 137.43 27.81 137.01 27.81C136.85 27.81 136.7 27.75 136.56 27.63C136.42 27.51 136.35 27.37 136.35 27.21C136.43 26.03 136.5 24.89 136.56 23.79C136.62 22.67 136.66 21.21 136.68 19.41V11.1H132.27V11.13C132.27 13.31 132.11 15.35 131.79 17.25C131.47 19.15 130.8 21.03 129.78 22.89C128.76 24.73 127.29 26.35 125.37 27.75L124.98 27.36C127.1 25.22 128.53 22.83 129.27 20.19C130.03 17.53 130.41 14.51 130.41 11.13V7.08C130.41 5.32 130.33 3.93 130.17 2.91L132.36 3.75C132.6 3.67 133.19 3.44 134.13 3.06C135.11 2.64 136.06 2.16 136.98 1.62C137.92 1.08 138.68 0.540001 139.26 9.53674e-07C140.76 1.4 141.51 2.23 141.51 2.49C141.51 2.63 141.37 2.68 141.09 2.64L140.34 2.58C139.3 2.94 138.05 3.3 136.59 3.66C135.13 4 133.69 4.28 132.27 4.5V10.2H138.75L139.35 9.33ZM126.57 1.89C126.63 1.81 126.72 1.69 126.84 1.53C126.96 1.35 127.06 1.22 127.14 1.14C127.24 1.04 127.33 0.990001 127.41 0.990001C127.53 0.990001 127.78 1.14 128.16 1.44C128.56 1.74 128.93 2.07 129.27 2.43C129.61 2.77 129.78 3.01 129.78 3.15C129.7 3.47 129.44 3.63 129 3.63H121.08C119.66 3.65 118.16 3.79 116.58 4.05L115.8 2.52C116.9 2.64 118.23 2.72 119.79 2.76H125.94L126.57 1.89ZM125.76 7.2C125.82 7.12 125.92 6.99 126.06 6.81C126.2 6.61 126.33 6.51 126.45 6.51C126.57 6.51 126.81 6.65 127.17 6.93C127.53 7.19 127.86 7.48 128.16 7.8C128.46 8.12 128.61 8.35 128.61 8.49C128.41 8.75 128 8.96 127.38 9.12V11.79C127.42 13.93 127.48 15.65 127.56 16.95C127.46 17.11 127.22 17.28 126.84 17.46C126.46 17.62 126.12 17.7 125.82 17.7C125.7 17.7 125.61 17.64 125.55 17.52C125.49 17.4 125.46 17.26 125.46 17.1C125.46 17.1 125.5 16.9 125.58 16.5V15.9H119.79C119.67 18.22 119.32 20.4 118.74 22.44C118.16 24.48 117.21 26.28 115.89 27.84L115.53 27.51C116.53 25.53 117.19 23.37 117.51 21.03C117.83 18.69 117.99 16.03 117.99 13.05V9.9C117.99 8.64 117.93 7.55 117.81 6.63L120.18 7.86H125.31L125.76 7.2ZM125.58 15.03V8.73H119.85V13.05C119.85 13.91 119.84 14.57 119.82 15.03H125.58Z" fill="#161616"/>
</svg>
